<?xml version="1.0" encoding="utf-8"?>
<!DOCTYPE svg PUBLIC "-//W3C//DTD SVG 1.0//EN" "http://www.w3.org/TR/2001/REC-SVG-20010904/DTD/svg10.dtd">
<svg version="1.0" xmlns="http://www.w3.org/2000/svg" width="821px" height="539px" viewBox="0 0 821 539" preserveAspectRatio="xMidYMid meet">
 <g fill="#ffffff">
  <path d="M499 320.2 c-2.2 -1.8 -2.5 -2.8 -2.5 -8.4 0 -6.3 0.1 -6.5 5.3 -12.8 4.6 -5.4 5.3 -6.8 5 -9.9 -0.4 -4.4 -2.8 -5.1 -8.9 -2.7 -4.9 2 -10.1 2 -15.6 0.1 -3.9 -1.4 -4.7 -1.3 -9.3 0.5 -2.8 1.1 -7.4 2.3 -10.3 2.6 -5.2 0.6 -5.4 0.5 -9.5 -3.5 -2.3 -2.3 -4.2 -4.7 -4.2 -5.3 0 -0.7 -0.7 -0.5 -1.7 0.4 -1 0.8 -2.5 1.8 -3.5 2.1 -1.6 0.6 -3.1 2.9 -6.2 9.4 -0.9 2 -2.5 3.5 -4 3.9 -4.9 1.2 -5.6 0.2 -5.6 -8.4 0 -7.3 -0.2 -8 -2.4 -9.2 -5.3 -2.8 -12 0.4 -16.2 7.5 -1.3 2.4 -13.4 3.6 -13.4 1.4 0 -0.8 -0.7 -0.1 -1.5 1.5 -2 3.8 -2 17.4 0 21.2 1.9 3.6 2 8.4 0.2 8.4 -2.8 0 -7.7 -9.3 -7.7 -14.6 0 -1.2 -0.5 -2.4 -1 -2.6 -1.8 -0.6 -1.5 -34.2 0.4 -42.8 0.9 -4.1 1.6 -7.9 1.6 -8.5 -0.1 -1.9 -4 6.4 -7.2 15.2 -1.7 4.8 -4.2 10.1 -5.5 11.6 -1.2 1.6 -2.3 3.3 -2.3 3.8 0 0.5 -1 2.3 -2.2 3.9 -1.6 2.3 -3 3 -5.5 3 -2.8 0 -3.5 -0.5 -5.2 -4.1 -1.1 -2.3 -2.3 -6.8 -2.7 -10.1 -0.4 -3.5 -1.2 -6.2 -2 -6.5 -0.8 -0.3 -1.2 -1.6 -0.9 -3.6 l0.5 -3.2 -1 3 c-0.5 1.7 -2.1 4.2 -3.5 5.7 -2.6 2.8 -4.1 8.7 -6.6 25.8 -1.7 11.7 -1.8 12 -3.7 12 -2 0 -4.7 -2.8 -5.6 -5.8 -1.1 -3.3 -8.4 -4.1 -20.3 -2.2 -6.5 1.1 -23.9 6.6 -26 8.2 -4 3.2 -12.9 7.8 -15 7.8 -3.6 0 -2.6 -2.8 2 -6 5.1 -3.5 7.3 -7.1 8.7 -14.6 0.7 -3.5 1.6 -6.4 2 -6.4 0.5 0 1.1 -1.5 1.5 -3.2 1 -4.7 6.9 -22.2 7.7 -22.8 0.4 -0.3 1.2 -3 1.9 -6 0.6 -3 1.6 -6.4 2.3 -7.5 0.7 -1.1 1.8 -4.6 2.6 -7.7 0.7 -3.2 1.6 -5.8 2 -5.8 0.7 0 2 -4.4 3.5 -11.4 0.3 -1.5 1.3 -3.5 2.1 -4.4 1.4 -1.3 1.7 -1.3 2.5 -0.1 0.5 0.8 0.9 1.8 0.9 2.3 0 1.7 -4 14.5 -5.5 17.3 -0.8 1.5 -1.8 4.3 -2.1 6 -0.3 1.8 -1 3.3 -1.4 3.3 -0.4 0 -1.5 2.7 -2.4 6 -0.9 3.3 -2.3 7.2 -3.1 8.7 -0.8 1.5 -1.8 4.4 -2.1 6.3 -0.4 1.9 -1 4 -1.4 4.5 -0.5 0.6 -1.5 3.3 -2.3 6 -0.8 2.8 -2.3 6.5 -3.2 8.3 -1 1.9 -1.8 5.7 -1.9 8.5 -0.1 4.8 0.1 5.2 2.4 5.5 1.4 0.2 7.9 -1.1 14.5 -2.8 6.6 -1.8 15.6 -3.4 20 -3.7 11 -0.8 13.2 -2 14 -8 0.3 -2.7 1 -6.2 1.6 -8 0.5 -1.7 1.6 -6.8 2.4 -11.4 0.8 -4.5 1.9 -8.7 2.5 -9.3 0.5 -0.5 1 -1.6 1 -2.3 0 -1.6 6.2 -17.7 9.7 -25.3 2.8 -6.1 3.7 -7 7.1 -7 3.5 0 4.1 3.2 3.1 17.3 -0.8 12.2 -0.5 15.7 1 15.7 0.4 0 0.5 1.7 0.4 3.8 l-0.4 3.7 1.4 -3 c0.8 -1.6 2.8 -4 4.6 -5.3 1.7 -1.2 3.1 -2.9 3.1 -3.6 0 -0.8 0.4 -1.6 0.8 -1.8 1.1 -0.5 5.3 -7.8 6.8 -12 1.4 -4 10 -17.8 11.8 -19 2 -1.4 5.6 -0.8 6.3 0.8 0.7 2 -1.4 18.8 -2.7 21.2 -1.6 3 -3.1 16.9 -2 19.7 0.5 1.4 0.7 3.9 0.3 5.7 -0.4 2.2 -0.3 2.9 0.5 2.4 0.7 -0.4 1.2 -1.7 1.2 -2.9 0 -2.2 0.2 -2.3 7.1 -1.6 6.4 0.6 7.4 0.9 9.6 3.8 3.2 4.1 9.2 4.4 12.7 0.6 2.8 -3 4.7 -3.2 6.4 -0.5 1.6 2.6 4.8 2.6 7 -0.1 0.9 -1.1 2.5 -3 3.4 -4.1 1 -1.1 2 -2.9 2.3 -3.9 0.7 -2.2 5.4 -4.9 8.6 -4.9 1.8 0 2.1 0.5 1.7 3.5 -0.4 3.3 -0.3 3.4 3.7 3.7 3.7 0.3 4 0.5 4.3 3.6 0.2 2 -0.7 5.4 -2.3 8.8 -1.5 3.1 -2.4 5.8 -2.1 6.2 0.7 0.7 8.6 -3 8.6 -4 0 -0.5 0.6 -0.8 1.4 -0.8 0.7 0 2.7 -1.3 4.4 -3 1.8 -1.6 3.6 -3 4.2 -3 0.5 0 3.3 -2.2 6.1 -5 4.8 -4.7 5.5 -5 10.3 -5 6.4 0 9.6 2 9.6 6 0 1.6 -0.4 3.2 -1 3.5 -0.5 0.3 -1.5 1.5 -2 2.5 -0.9 1.6 -0.8 1.8 0.6 1.3 0.9 -0.3 2.4 -2.5 3.5 -4.9 1.6 -3.8 2.2 -4.4 4.8 -4.4 3.6 0 6.1 0.9 6.1 2.2 0 0.5 -0.8 2.2 -1.9 3.6 -4 5.8 -3.4 14.2 1.1 14.2 2.6 0 14.2 -7.7 18.7 -12.4 3.4 -3.5 7.1 -4.8 7.1 -2.5 0 2.6 -18.7 18.8 -21.9 18.9 -0.3 0 -2.2 1.5 -4.1 3.2 l-3.5 3.2 0.3 9.6 c0.3 9.3 0.2 9.7 -2.5 12.8 -3.7 4.2 -8.8 5.2 -12.3 2.4z"/>
  <path d="M629.3 318.6 c-3 -1.4 -9.3 -8.7 -9.3 -10.9 0 -0.5 -1.2 -2.3 -2.6 -4 -2.5 -3 -2.6 -3.5 -2 -11.4 0.5 -7 0.4 -8.3 -0.9 -8.3 -0.8 0 -1.5 0.3 -1.5 0.8 -0.1 1.1 -16.9 18.6 -21.4 22.1 -7.7 6.1 -15.1 6 -17.7 -0.2 -1 -2.4 -1 -4.8 0.4 -13 1.4 -8.9 1.4 -10.4 0.1 -12.9 -0.8 -1.5 -1.9 -2.8 -2.4 -2.8 -1.2 0 -1.3 -8.7 -0.1 -9.4 0.5 -0.3 1.2 -2.3 1.6 -4.3 0.3 -2.1 1.2 -4.7 2 -5.8 0.7 -1.1 2.1 -4.6 3.1 -7.8 1 -3.1 2.1 -5.7 2.5 -5.7 0.4 0 1.2 -1.2 1.8 -2.7 0.6 -1.6 2.3 -4.6 3.6 -6.8 1.9 -3 2.5 -5.4 2.5 -9.7 0 -6.2 0.8 -7.1 5.3 -5.5 2 0.6 4.1 0.6 6.7 -0.2 2 -0.6 6.1 -1.1 9 -1.1 4.7 0 5.6 0.4 8.6 3.6 4.2 4.4 4.3 4.8 5.2 21.9 0.7 13.5 0.8 14 3 14.3 1.2 0.2 2.2 -0.1 2.2 -0.6 0 -0.6 1.8 -3.2 3.9 -6 4.4 -5.5 6.1 -10.4 6.1 -17.4 0 -4.2 0.3 -4.8 2.4 -5.4 1.4 -0.3 2.9 -0.3 3.5 0 1 0.7 6.2 -1 7.1 -2.3 0.3 -0.4 2.9 -2.6 5.8 -4.9 4.8 -3.7 6 -4.2 10.7 -4.2 6 0 6.5 0.6 6.5 7.9 0 5 -2.6 16.2 -3.9 17.1 -0.5 0.3 -1.5 1.9 -2.4 3.5 -0.9 1.7 -3.5 5 -5.7 7.5 -4.9 5.5 -5.1 9.1 -0.4 13.7 2.5 2.5 3.7 12.3 2.6 20.6 -1.1 8.4 -4 13.9 -11.9 22.4 -6.6 7.1 -17.7 10.7 -24 7.9z m9.7 -8.6 c5.4 -2.7 12.5 -9.5 15.6 -14.8 1.5 -2.6 3 -4.9 3.4 -5.2 1.8 -1.3 3 -5.4 3 -10.6 0 -4.5 -0.5 -6.1 -2.2 -8 -1.3 -1.3 -3 -3.1 -3.9 -4.1 -0.9 -1 -2.9 -2.8 -4.3 -4 -1.9 -1.5 -2.6 -3.1 -2.6 -5.5 0 -2.9 0.7 -3.9 4.4 -6.6 5.8 -4 10.9 -11 14.2 -19.5 4.1 -10.1 2.4 -10.1 -7.8 -0.1 -9.2 9 -11.7 13.3 -13.8 23.2 -1 4.8 -2.1 9.9 -2.5 11.5 -0.7 2.6 -0.6 2.7 2 1.7 1.4 -0.5 4.4 -1 6.6 -1 3.2 0 3.9 0.4 3.9 1.9 0 1.3 -1.3 2.4 -4.2 3.6 -4.7 1.8 -12.8 9.4 -12.8 11.8 0 0.9 -1.1 2.9 -2.5 4.5 -2.9 3.5 -7.2 12.4 -8.1 16.9 -0.5 2.4 -0.1 3.6 1.5 5.2 2.4 2.4 3.8 2.2 10.1 -0.9z m-47.9 -15.5 c3.9 -3.9 8.3 -9 9.7 -11.5 1.4 -2.5 5 -6.8 8 -9.6 5 -4.9 5.4 -5.6 6.5 -12.2 0.7 -3.9 1.6 -7.4 2 -7.8 0.4 -0.4 0.7 -5.9 0.6 -12.3 -0.1 -13.8 -1.4 -17.4 -6.8 -17.9 -4.6 -0.5 -8.5 1.4 -12.6 5.9 -3 3.3 -3.5 4.6 -3.5 8.7 0 2.6 -0.5 5.3 -1.1 5.9 -0.6 0.6 -1.2 3.9 -1.2 7.4 -0.2 5.5 0.1 6.7 2.1 8.7 2.5 2.5 2.4 3.5 -0.9 10.9 -1.1 2.3 -1.9 4.9 -1.9 5.9 0 0.9 -1.4 3.6 -3 6.1 -4.3 6.3 -6.1 10.1 -7.5 15.5 -1.2 4.4 -1.2 4.6 0.6 3.9 1.1 -0.3 5.1 -3.8 9 -7.6z"/>
  <path d="M153.7 299.1 c-5.4 -1.1 -9.4 -5.4 -10.8 -11.5 -1.7 -7.9 0 -12.6 7.1 -19.5 3.7 -3.6 6 -6.7 6.5 -8.7 1.1 -5.3 4.5 -7.6 12.4 -8.3 6.1 -0.6 7.3 -1.1 10.9 -4.3 6.2 -5.6 9.2 -6.8 17 -6.8 6.9 0 11 1.7 15.8 6.4 2.3 2.4 6.4 10.4 6.4 12.6 0 1.3 2.2 4.4 5.3 7.4 7.7 7.8 7.7 7.8 7.7 15.6 0 5.9 -0.4 7.7 -2.4 10.6 -4.8 7.1 -3.6 6.9 -39.6 7.1 -17.9 0.1 -34.2 -0.2 -36.3 -0.6z m28.5 -23.6 c0.2 -5.4 0 -6.5 -1.2 -6.5 -2.7 0 -4 2.2 -4 7 0 5.1 0.5 6 3.1 6 1.4 0 1.8 -1.1 2.1 -6.5z m16.6 5.3 c1.6 -1.6 1.6 -9 0 -10.6 -0.7 -0.7 -3 -1.2 -5.2 -1.2 -3.9 0 -4 0 -1.8 1.6 2.8 1.9 3.1 8 0.5 10 -1.6 1.2 -1.4 1.3 1.8 1.4 1.9 0 4 -0.5 4.7 -1.2z"/>
  <path d="M460.7 255.4 c-0.8 -0.8 1.1 -5.7 2.6 -6.6 0.7 -0.4 2.2 -0.8 3.5 -0.8 2.8 0 3.1 3.9 0.4 6.3 -1.8 1.7 -5.3 2.3 -6.5 1.1z"/>
 </g>
 <g fill="#6d5365">
  <path d="M394.2 315 c-1.1 -2.9 -3.2 -12.9 -3.4 -16.5 -0.1 -1.2 0.9 -11.3 2.2 -21.8 0.5 -4.3 0.9 -8.1 0.8 -8.5 -0.4 -1.5 1.3 -8.2 2.1 -8.2 0.5 0 1.1 0.9 1.4 2 0.3 1.3 1.7 2.2 3.7 2.6 2.2 0.5 2.8 1 2.1 1.7 -0.6 0.6 -1.1 1.9 -1.1 2.9 0 1 -0.9 3.2 -2 5 -3 4.9 -2.3 11.6 1.4 14 0.6 0.4 -0.5 0.8 -2.5 0.8 -1.9 0 -4 0.5 -4.7 1.2 -1.8 1.8 -1.6 16.8 0.4 20.6 0.8 1.8 1.4 4.2 1.2 5.4 -0.3 2 -0.5 1.8 -1.6 -1.2z"/>
  <path d="M500 314.8 c0 -5.4 8.4 -17.3 10.2 -14.6 2.6 4.1 -0.5 13.9 -5.1 16.2 -4.3 2.3 -5.1 2 -5.1 -1.6z"/>
  <path d="M625.9 313.9 c-1.8 -1.8 -2.1 -3 -1.7 -7.8 0.9 -12.9 12.8 -29.3 25.1 -34.6 1.8 -0.8 2.5 -1.4 1.7 -1.4 -2 -0.1 -9.4 3.3 -13.1 6 -1.6 1.1 -2.9 1.7 -2.9 1.4 0 -0.4 1.1 -3.9 2.4 -7.8 1.3 -4 3.3 -11.5 4.4 -16.9 2.3 -11 4.6 -15 14.1 -24.3 8.6 -8.4 16 -12 16.2 -7.7 0.7 11.4 -6.8 26.5 -16.6 33.4 -4.9 3.5 -4.9 4.8 0 7.8 4.1 2.5 7.5 10.1 7.5 16.8 0 10.3 -5 21.4 -12.8 28.3 -9.2 8.2 -19.9 11.2 -24.3 6.8z m30.8 -22.6 c3.3 -2.9 4.3 -5.8 4.3 -12.3 0 -5.5 -0.2 -6.1 -2.5 -7.2 -3.8 -1.7 -10.1 0.8 -15.7 6.3 -6.7 6.4 -6.2 10.9 1 10.9 1.9 0 4.5 0.9 5.9 2 3.1 2.5 4.4 2.5 7 0.3z"/>
  <path d="M577 304.3 c0 -8.3 3.2 -16.3 10.6 -27 2.5 -3.4 3.9 -6.3 3.3 -6.3 -0.8 0 -0.5 -0.9 0.7 -2.2 1.1 -1.3 2.6 -3.2 3.4 -4.2 1.4 -1.8 1.4 -1.9 -0.9 -0.7 -1.3 0.8 -4.4 3.1 -6.8 5.4 l-4.4 4 3.2 -6.9 c1.7 -3.8 3.3 -7.8 3.5 -8.9 0.2 -1.1 1 -4 1.8 -6.5 l1.5 -4.5 -0.6 4.3 c-0.5 3.5 -0.1 4.9 1.7 7.4 2.8 3.8 2.8 6.1 0.1 12 -1.1 2.6 -2.1 5.6 -2.1 6.6 0 2.7 2.5 4.5 5.3 3.8 3.1 -0.7 15.9 -10.1 15 -10.9 -0.3 -0.4 -0.1 -0.7 0.5 -0.7 0.7 0 1.2 -0.6 1.2 -1.4 0 -3.2 1.5 -2.2 1.6 1 0 1.9 -0.3 3.4 -0.8 3.4 -0.5 0 -0.6 0.4 -0.3 1 0.3 0.5 -1 4 -3 7.8 -1.9 3.8 -3.5 7.3 -3.5 7.8 0.1 1.3 4 -3.9 4 -5.3 0 -0.6 0.6 -1.8 1.3 -2.5 0.7 -0.7 2.2 -3.8 3.3 -6.8 1 -3 2.1 -5.7 2.4 -6 1.1 -1.1 3.1 -8.1 3.8 -13.2 l0.7 -5.3 0.5 4.5 c0.6 5.8 3.6 6.7 6.2 2 1 -1.7 2.2 -2.8 2.8 -2.5 0.6 0.4 0.8 1.1 0.4 1.6 -0.3 0.5 -1 0.6 -1.6 0.3 -0.8 -0.5 -0.9 -0.1 -0.5 1 0.5 1.1 0.3 1.5 -0.5 1 -0.8 -0.5 -0.9 -0.2 -0.5 1 0.4 0.9 0.3 1.5 -0.1 1.2 -1.2 -0.7 -4.4 6.3 -3.6 7.6 0.4 0.6 0.3 0.8 -0.3 0.5 -0.8 -0.5 -7.6 12.4 -9.6 18.3 -0.4 1.2 -0.6 1.1 -0.6 -0.2 -0.1 -1.7 -3.1 -2.6 -3.1 -1 0 1.4 -4.1 5.3 -4.9 4.7 -0.5 -0.2 -2.6 1.6 -4.6 4.1 -2.8 3.3 -4 4.2 -4.6 3.3 -0.5 -0.9 0.1 -2.5 1.6 -4.4 3.4 -4.2 7.8 -11.6 7.2 -12.1 -0.2 -0.3 -1.8 1.9 -3.5 4.8 -5.3 9.4 -20.8 22.8 -26.3 22.8 -0.5 0 -0.9 -1.7 -0.9 -3.7z"/>
  <path d="M286.2 303.1 c-0.9 -0.5 -1.1 -1.7 -0.6 -3.7 l0.8 -2.9 0.8 3.4 c1 3.7 0.8 4.3 -1 3.2z"/>
  <path d="M334.4 300.9 c-0.5 -0.9 -1.6 -1.9 -2.4 -2.2 -1.3 -0.5 -1.3 -0.5 0 -0.6 2.3 -0.1 4.3 1.5 3.8 3 -0.4 1.1 -0.7 1 -1.4 -0.2z"/>
  <path d="M384.8 290 c-0.3 -10.3 -0.7 -12.3 -2.4 -14 -1.6 -1.7 -2.3 -1.8 -4.4 -0.7 -1.4 0.7 -3.2 2.6 -4 4.2 -2.8 5.5 -5.2 8.5 -6.7 8.5 -1.1 0 -0.9 -0.5 0.6 -1.7 1.3 -1.1 4.2 -7.6 7.5 -16.8 6.6 -18.1 11.4 -28.8 17.3 -37.7 2.4 -3.8 4.5 -6.8 4.7 -6.8 0.2 0 -0.5 3.5 -1.6 7.7 -4.1 16.7 -7.7 35.8 -6.9 36.8 1.6 2 2 4.4 0.9 5.1 -0.6 0.4 -0.9 0.3 -0.6 -0.2 0.3 -0.5 0.2 -1.8 -0.1 -2.8 -1.2 -3.2 -3.4 17.6 -2.6 24.3 0.4 3.8 0.3 6.1 -0.3 6.1 -0.5 0 -1.1 -5.2 -1.4 -12z"/>
  <path d="M300.5 300 c1.1 -0.5 2.7 -0.9 3.5 -0.9 0.9 0 0.8 0.4 -0.5 0.9 -1.1 0.5 -2.7 0.9 -3.5 0.9 -0.9 0 -0.8 -0.4 0.5 -0.9z"/>
  <path d="M617.4 294.5 c0.4 -2.8 1.7 -6.9 2.8 -9.3 1.1 -2.3 1.8 -5.2 1.5 -6.2 -0.3 -1.1 -0.1 -1.8 0.3 -1.5 1.2 0.8 3.3 -3.3 2.6 -5.1 -0.3 -0.8 -0.2 -1.3 0.3 -1 0.5 0.3 3.3 -3.7 6.2 -8.9 2.9 -5.2 5.3 -9.4 5.5 -9.3 0.1 0.2 -0.3 2.6 -1.1 5.3 -4.6 17.7 -12.3 35.6 -17.1 39.6 -1.6 1.3 -1.6 1 -1 -3.6z"/>
  <path d="M327.3 295.3 c0.9 -0.2 2.5 -0.2 3.5 0 0.9 0.3 0.1 0.5 -1.8 0.5 -1.9 0 -2.7 -0.2 -1.7 -0.5z"/>
  <path d="M334.6 295 c-1.9 -0.6 -1.9 -0.7 -0.1 -1.3 2 -0.8 2.9 -0.4 2.4 1.1 -0.2 0.5 -1.3 0.6 -2.3 0.2z"/>
  <path d="M506.5 289.7 c0 -3.8 -0.2 -4.2 -2.7 -4.5 -3.9 -0.5 -3.5 -2.3 1 -4.9 l3.8 -2.1 -0.3 7 c-0.2 7.6 -1.8 11.5 -1.8 4.5z"/>
  <path d="M516.6 289 c2.3 -2.1 4 -4.1 3.7 -4.3 -0.2 -0.3 0.1 -0.8 0.8 -1.3 0.8 -0.5 1 -0.3 0.5 0.7 -0.4 0.8 -0.1 0.6 0.7 -0.3 0.8 -1 1.7 -1.5 2 -1.1 0.4 0.3 1.3 0 2.1 -0.6 1 -0.8 1.6 -0.9 2.1 -0.1 0.4 0.6 0.3 0.9 -0.2 0.8 -0.8 -0.3 -12.6 8.1 -13.1 9.5 -0.2 0.4 -0.9 0.7 -1.5 0.7 -0.7 0 0.7 -1.8 2.9 -4z"/>
  <path d="M512.6 287.5 c-0.3 -1.3 -0.3 -3.1 0 -3.9 0.6 -1.4 0.8 -1.5 1.8 -0.2 0.6 0.8 1.9 1.6 2.9 1.8 1.6 0.2 1.4 0.6 -1.1 2.5 l-3 2.2 -0.6 -2.4z"/>
  <path d="M432.5 284.8 c0.4 -2.4 0.9 -6.1 1 -8.4 0.3 -4.8 1.2 -6.7 2.6 -5.8 1.9 1.1 5.5 -0.5 6.9 -3.1 0.7 -1.4 1.8 -2.5 2.3 -2.5 0.6 0 0.3 0.8 -0.5 1.8 -0.9 0.9 -3.9 6.3 -6.7 12 -2.8 5.6 -5.4 10.2 -5.7 10.2 -0.3 0 -0.3 -1.9 0.1 -4.2z"/>
  <path d="M360.9 285.8 c-1.2 -2.3 -1.2 -2.3 1 -0.4 2.3 2.1 2.6 2.6 1.1 2.6 -0.5 0 -1.5 -1 -2.1 -2.2z"/>
  <path d="M473.5 285.4 c1.7 -1.4 4.2 -3.3 5.6 -4.4 l2.5 -1.9 1 3.8 1.1 3.9 -3 -0.9 c-2 -0.6 -4.1 -0.4 -6.6 0.6 l-3.6 1.5 3 -2.6z"/>
  <path d="M457.3 282.6 c0.4 -2.6 1.8 -7 3.1 -9.8 2.7 -5.5 2.6 -6.8 -0.4 -6.8 -2.1 0 -5.2 5.9 -7 13.2 -1.1 4.4 -1.4 4.6 -3.6 3.8 -1.5 -0.6 -3.4 -0.6 -4.8 0 -2.4 0.9 -2.4 0.8 -1.3 -1.8 0.7 -1.5 3.6 -7.4 6.5 -13.1 4.1 -8 5 -10.6 4 -11.2 -0.9 -0.6 -0.6 -0.9 1 -0.9 3.4 0 5.9 -1.6 6.6 -4.4 0.3 -1.3 1.3 -2.7 2.2 -3 1.4 -0.5 1.5 -0.4 0.5 0.8 -0.7 0.8 -1 2 -0.6 2.6 0.9 1.4 4.5 1.3 4.5 -0.2 0 -0.6 0.3 -0.9 0.6 -0.5 0.4 0.3 -0.5 2 -2 3.7 -3.7 4.4 -3.4 7.2 1.2 10.6 2 1.5 4 3.3 4.4 4 1.2 1.9 5.6 2.6 8.1 1.3 1.2 -0.7 4.1 -3.2 6.5 -5.6 2.4 -2.3 5 -4.3 5.7 -4.3 0.8 0 -0.6 2 -3 4.5 -2.4 2.5 -4.7 5.5 -5 6.5 -0.4 1.1 -1.1 2 -1.6 2 -0.6 0 -0.8 0.4 -0.5 0.9 0.3 0.5 -0.2 0.8 -1.1 0.7 -0.9 0 -2.2 0.9 -2.8 2.2 -0.7 1.2 -1.6 2.6 -2 3 -0.5 0.4 -0.4 0 0 -0.8 0.8 -1.3 0.7 -1.3 -0.8 -0.1 -0.9 0.7 -1.7 1 -1.7 0.5 0 -0.5 -0.4 -0.4 -0.8 0.2 -1 1.5 -9.1 5.2 -13.1 6 l-3.4 0.7 0.6 -4.7z"/>
  <path d="M401.4 284.6 c-0.3 -0.8 -0.1 -3.1 0.6 -5 1.1 -3.6 1.2 -3.6 4.1 -2.1 2.8 1.5 2.9 1.6 1.3 4.1 -2.3 3.5 -5.3 4.9 -6 3z"/>
  <path d="M575.7 283.6 c-0.4 -0.9 0.6 -2.7 2.3 -4.5 3.6 -3.5 3.7 -2.9 0.6 2.2 -1.7 2.8 -2.5 3.4 -2.9 2.3z"/>
  <path d="M485.5 283 c-0.3 -0.5 -0.3 -2.1 0.1 -3.5 0.4 -1.8 1.3 -2.5 3.1 -2.5 3.7 0 7.7 -2.5 11.3 -7 2.9 -3.6 3.1 -4.4 2.1 -6.6 -1 -2.3 -0.9 -2.4 0.9 -1.4 1 0.5 2.2 1.5 2.5 2 0.3 0.6 2.3 1 4.4 1 l3.8 0 -2.7 5.6 c-3 6 -5.3 7.9 -14.3 11.2 -6.2 2.4 -10.2 2.8 -11.2 1.2z"/>
  <path d="M362.8 277.8 c-0.4 -5.9 1.3 -22.8 2.4 -22.8 0.4 0 0.8 0.4 0.8 0.9 0 1.8 4.1 2.3 6.5 0.7 2.1 -1.4 2.4 -1.4 2.9 0 0.3 0.8 0.2 1.3 -0.3 1 -0.4 -0.3 -2 2.7 -3.5 6.7 -3.6 9.5 -6.8 16.7 -7.7 17.3 -0.4 0.2 -0.9 -1.5 -1.1 -3.8z"/>
  <path d="M425.5 279 c-0.3 -0.5 -1.7 -1 -3.1 -1 -1.5 0 -2.3 -0.4 -1.9 -1.1 0.4 -0.6 0.9 -0.8 1.2 -0.5 0.3 0.3 2.1 -0.1 3.9 -0.9 2.9 -1.2 3.4 -1.2 3.4 0 0 3.6 -2.1 5.7 -3.5 3.5z"/>
  <path d="M406.4 271.9 c2.5 -6 7.9 -6.3 5.9 -0.2 -0.7 2.2 -1.7 2.9 -4.1 3.1 l-3.2 0.3 1.4 -3.2z"/>
  <path d="M536.7 271.9 c1.8 -1.8 3.5 -3.1 3.7 -2.8 0.3 0.3 -1.2 1.8 -3.2 3.3 l-3.7 2.9 3.2 -3.4z"/>
  <path d="M417 272.7 c0 -0.9 1.1 -1.2 3.8 -0.9 3 0.4 3.3 0.6 1.7 1.3 -3.1 1.2 -5.5 1 -5.5 -0.4z"/>
  <path d="M579 271 c0 -0.6 0.7 -2.7 1.5 -4.7 2.1 -5 1.8 -5.5 -0.6 -1 -2.4 4.6 -3.2 4.4 -1.8 -0.4 1.3 -4.5 8 -18.1 7.5 -15 -0.3 1.5 0.1 3 1.2 3.8 0.9 0.8 1.1 1.1 0.3 0.7 -1 -0.5 -1.3 -0.3 -0.9 0.8 0.6 1.4 -2.8 12.8 -4.6 15.7 -0.9 1.4 -2.6 1.5 -2.6 0.1z"/>
  <path d="M348.6 268.3 c2.8 -11.5 12.8 -38.3 13.9 -37.1 0.2 0.1 -0.1 2.6 -0.6 5.3 -0.6 2.8 -0.8 6.3 -0.5 7.8 0.3 1.5 0.2 2.6 -0.3 2.3 -1.1 -0.7 -3.1 10.3 -3.1 16.7 0 4.6 0 4.6 -2.9 4.1 -2.3 -0.5 -3.2 -0.2 -4.3 1.5 -1.8 2.9 -3 2.6 -2.2 -0.6z"/>
  <path d="M492 269.2 c0 -1 4.3 -5.2 5.3 -5.2 1.6 0 0.5 2 -2.3 4 -1.6 1.2 -3 1.7 -3 1.2z"/>
  <path d="M293.5 265.8 c0.4 -1.3 1.1 -2.7 1.6 -3.3 0.5 -0.5 0.4 0.5 -0.2 2.3 -1.2 3.6 -2.4 4.4 -1.4 1z"/>
  <path d="M343.7 266.3 c-0.4 -0.3 -0.7 -1.6 -0.6 -2.7 0 -1.9 0.1 -1.9 1 0.3 1 2.4 0.8 3.6 -0.4 2.4z"/>
  <path d="M616 255.6 c0 -0.8 0.5 -1.8 1 -2.1 0.6 -0.3 1 0.1 1 0.9 0 0.8 -0.4 1.8 -1 2.1 -0.5 0.3 -1 -0.1 -1 -0.9z"/>
  <path d="M348.3 250.7 c0.1 -1.5 0.5 -2.7 1 -2.7 1 0 0.9 2.2 -0.2 3.9 -0.7 1 -0.9 0.7 -0.8 -1.2z"/>
  <path d="M618.4 239 c0 -5.2 0.1 -7.4 0.3 -4.7 0.2 2.6 0.2 6.8 0 9.5 -0.2 2.6 -0.3 0.4 -0.3 -4.8z"/>
  <path d="M350.6 245 c0.3 -1.4 1.1 -3.2 1.6 -4 0.6 -1 0.7 -0.7 0.2 1 -0.3 1.4 -1.1 3.2 -1.6 4 -0.6 1 -0.7 0.7 -0.2 -1z"/>
  <path d="M594 238.7 l0.5 -5.2 0.3 4.4 c0.2 2.4 0 4.7 -0.5 5.2 -0.4 0.4 -0.6 -1.5 -0.3 -4.4z"/>
  <path d="M384 237.4 c0 -0.5 0.7 -1.9 1.5 -3 0.8 -1 1.5 -1.4 1.5 -0.8 0 0.5 -0.7 1.9 -1.5 3 -0.8 1 -1.5 1.4 -1.5 0.8z"/>
  <path d="M644 233.6 c0 -0.8 -0.3 -2.2 -0.7 -3.2 -0.5 -1.3 -0.3 -1.6 1 -1.1 1 0.4 3 0.2 4.5 -0.4 2.7 -1 2.7 -1 -0.7 2.5 -3.9 4.1 -4.1 4.1 -4.1 2.2z"/>
  <path d="M390.1 227.4 c1.9 -2.7 3.7 -5.5 4.1 -6.4 0.4 -0.8 0.7 -1 0.7 -0.3 0.1 1.4 -5.5 9.9 -7.1 10.9 -0.6 0.4 0.4 -1.5 2.3 -4.2z"/>
  <path d="M615.8 226.3 c-1 -2.2 -2.2 -2.9 -5.3 -3.3 -3 -0.4 -3.5 -0.7 -2.2 -1.3 4.3 -1.7 6.8 -0.8 8.3 2.9 1.8 4.3 1.2 5.8 -0.8 1.7z"/>
  <path d="M594.6 224.3 c-0.3 -0.3 -0.6 -1.3 -0.6 -2.2 0 -1.2 1 -1.6 4 -1.6 2.1 -0.1 3.8 0 3.7 0 -0.1 0.1 -1.6 1.1 -3.3 2.3 -1.7 1.2 -3.4 1.9 -3.8 1.5z"/>
 </g>
 <g fill="#604457">
  <path d="M322.3 295.3 c1.5 -0.2 3.7 -0.2 5 0 1.2 0.2 0 0.4 -2.8 0.4 -2.7 0 -3.8 -0.2 -2.2 -0.4z"/>
  <path d="M174.7 284.3 c-1.2 -1.2 -0.8 -15.8 0.5 -17.1 1.7 -1.7 24.9 -1.7 26.6 0 1.6 1.6 1.6 15 0 16.6 -1.3 1.3 -25.9 1.8 -27.1 0.5z m14.8 -6.9 c2 -1.5 2 -1.5 -0.4 -3.5 -2.8 -2.3 -4.1 -1.7 -4.1 2.2 0 3.2 1.4 3.7 4.5 1.3z"/>
 </g>
</svg>